<?xml version="1.0" standalone="no"?>
<!DOCTYPE svg PUBLIC "-//W3C//DTD SVG 20010904//EN"
 "http://www.w3.org/TR/2001/REC-SVG-20010904/DTD/svg10.dtd">
<svg version="1.0" xmlns="http://www.w3.org/2000/svg"
 width="2048.000000pt" height="1100.000000pt" viewBox="0 0 2048.000000 1100.000000"
 preserveAspectRatio="xMidYMid meet">

<g transform="translate(0.000000,1100.000000) scale(0.100000,-0.100000)"
fill="#000000" stroke="none">
<path d="M6530 10148 c-852 -366 -1412 -804 -1660 -1298 -84 -168 -120 -303
-128 -484 l-5 -128 -56 6 c-185 19 -548 27 -782 17 -529 -24 -704 -59 -972
-192 -223 -111 -370 -230 -499 -404 -130 -174 -182 -328 -182 -545 -1 -116 2
-145 23 -208 20 -62 32 -80 83 -127 95 -89 177 -95 236 -17 23 30 27 44 25 96
-9 313 -7 372 10 436 39 147 89 238 184 340 226 243 622 381 1208 421 276 19
819 0 1031 -36 l32 -5 5 182 c4 156 9 197 31 276 85 304 245 546 540 817 36
34 181 148 241 191 209 147 472 292 709 389 86 35 90 36 103 19 92 -128 384
-429 558 -576 228 -193 534 -416 838 -611 83 -53 159 -100 167 -104 8 -4 50
-28 93 -55 42 -27 112 -68 155 -92 42 -23 129 -72 192 -108 106 -60 296 -160
515 -271 50 -26 236 -118 415 -205 422 -206 596 -318 819 -529 385 -363 641
-848 741 -1403 11 -63 23 -159 27 -212 l6 -98 -656 0 -656 0 -3 -200 c-2 -110
-1 -205 0 -210 2 -6 238 -10 666 -10 l663 0 16 -74 c78 -352 54 -1105 -53
-1719 l-12 -69 -32 6 c-154 29 -580 83 -916 116 -205 20 -719 49 -995 55 -303
8 -533 -2 -825 -35 -1151 -130 -2279 -417 -3720 -945 -426 -157 -681 -211
-1035 -222 -357 -11 -688 44 -975 161 -241 99 -384 214 -469 376 -327 626
-378 1276 -147 1874 126 324 326 632 582 892 192 196 314 285 464 344 126 48
210 63 324 58 90 -4 107 -8 156 -36 191 -108 447 -182 627 -182 136 0 167 12
249 94 60 61 73 80 87 132 21 74 21 77 1 143 -26 89 -121 176 -234 216 -75 27
-159 33 -310 24 -694 -43 -1277 -219 -1740 -527 -151 -101 -261 -192 -396
-326 -208 -210 -338 -395 -484 -691 -152 -310 -245 -580 -292 -855 -32 -182
-32 -526 0 -685 86 -428 303 -787 647 -1070 233 -191 486 -322 715 -369 256
-52 733 -46 1125 15 484 74 1019 201 1635 385 299 90 414 127 1160 375 739
245 813 268 995 304 714 142 1407 176 2030 99 249 -31 481 -76 690 -135 461
-130 896 -338 1172 -561 l71 -58 271 0 271 0 0 1564 c0 860 3 1571 6 1580 6
14 87 16 815 16 l809 0 0 225 0 225 -860 0 c-968 0 -871 -9 -884 80 -12 78
-57 251 -98 380 -162 498 -458 961 -868 1356 -52 50 -120 113 -150 139 -30 26
-68 60 -85 74 -118 105 -420 313 -650 448 -358 211 -891 437 -1270 540 -54 15
-320 120 -452 178 -256 115 -512 256 -753 418 -102 68 -379 272 -431 319 -15
13 -51 43 -80 68 -66 55 -188 170 -242 228 -22 23 -45 42 -51 41 -6 -1 -63
-23 -126 -51z"/>
<path d="M5356 6695 c-8 -30 -101 -169 -169 -250 -131 -157 -130 -270 5 -403
l58 -57 0 -297 0 -298 118 0 119 0 6 128 c4 70 7 206 7 302 l1 175 49 38 c140
108 131 307 -20 462 -56 58 -133 166 -145 206 -9 26 -22 24 -29 -6z"/>
<path d="M5749 6128 c-7 -17 -38 -64 -69 -102 -60 -76 -80 -114 -80 -149 0
-27 33 -83 71 -121 l29 -28 0 -169 0 -169 64 0 c78 0 76 -7 76 194 l0 149 39
42 c69 75 64 156 -13 242 -24 26 -57 69 -73 96 l-31 47 -13 -32z"/>
<path d="M4926 6102 c-16 -26 -48 -69 -71 -97 -79 -94 -80 -153 -5 -233 l40
-42 0 -170 0 -171 68 3 67 3 3 170 c2 166 3 171 26 190 36 30 66 86 66 123 0
47 -21 92 -72 148 -24 28 -54 67 -67 87 -12 20 -23 37 -24 37 -1 0 -15 -21
-31 -48z"/>
<path d="M6527 5513 c-13 -28 1 -38 58 -43 66 -5 105 -25 132 -67 17 -25 18
-80 21 -770 2 -693 1 -745 -15 -780 -23 -48 -68 -74 -143 -80 -54 -5 -59 -8
-56 -27 3 -21 5 -21 389 -24 l387 -2 0 24 c0 22 -6 25 -52 31 -43 6 -60 15
-90 45 l-38 38 0 334 0 335 26 24 c21 20 27 22 34 9 5 -8 49 -73 99 -145 264
-381 351 -521 351 -565 0 -30 -30 -58 -75 -69 -38 -10 -45 -15 -45 -36 l0 -25
400 0 400 0 0 24 c0 19 -7 26 -32 31 -103 22 -183 106 -390 410 -53 77 -173
252 -267 389 -94 137 -171 252 -171 256 0 4 28 34 63 65 147 137 317 295 387
361 164 156 219 195 291 208 34 6 57 34 41 50 -3 3 -140 6 -304 6 l-298 0 0
-25 c0 -21 5 -25 29 -25 88 0 141 -37 141 -100 0 -51 -54 -122 -182 -240 -57
-52 -148 -138 -203 -191 -55 -52 -143 -135 -195 -185 l-95 -89 -3 348 c-2 306
0 353 14 383 19 39 53 60 112 70 27 4 42 12 45 25 3 10 2 20 -1 23 -8 9 -760
7 -765 -1z"/>
<path d="M8330 5495 c0 -23 3 -25 50 -25 74 0 127 -30 151 -85 19 -43 20 -69
17 -777 -3 -679 -4 -735 -21 -765 -22 -42 -66 -64 -139 -70 -53 -5 -58 -8 -58
-29 l0 -24 669 0 669 0 8 68 c3 37 19 165 33 285 l27 217 -21 0 c-18 0 -26
-13 -49 -82 -52 -160 -148 -282 -260 -334 -71 -32 -188 -54 -289 -53 -98 0
-143 14 -171 52 -20 27 -21 42 -24 366 -4 387 -12 357 91 336 67 -13 100 -35
144 -96 34 -48 79 -184 85 -259 3 -37 7 -46 26 -48 l22 -3 0 470 c0 461 0 471
-20 471 -14 0 -20 -9 -25 -37 -41 -271 -115 -376 -270 -385 l-50 -3 -3 363
c-2 333 -1 363 15 369 9 4 94 2 189 -4 157 -9 178 -13 230 -38 109 -53 166
-137 206 -301 19 -76 23 -84 44 -84 l24 0 -2 263 -3 262 -647 3 -648 2 0 -25z"/>
<path d="M4746 5250 c-65 -6 -91 -27 -101 -83 -3 -18 -5 -186 -3 -375 l3 -344
33 -29 32 -29 641 0 c420 0 647 4 660 10 47 25 49 46 49 420 0 304 -2 357 -16
386 -10 20 -26 37 -40 40 -29 7 -1178 11 -1258 4z"/>
<path d="M13302 5034 c-53 -42 -75 -67 -91 -104 -12 -27 -32 -61 -46 -74 -17
-17 -25 -36 -25 -60 0 -29 7 -41 45 -72 37 -30 45 -42 45 -71 l0 -34 201 3
c179 3 202 5 210 21 6 9 17 17 25 17 28 0 64 47 64 84 0 38 -35 76 -217 235
-46 40 -87 81 -93 91 -17 32 -44 24 -118 -36z"/>
<path d="M14560 4837 c0 -7 54 -157 121 -333 259 -688 466 -1282 544 -1561
l29 -103 262 0 263 0 62 193 c34 105 88 275 121 377 33 102 67 209 76 237 10
29 19 53 22 53 3 0 18 -57 34 -127 15 -71 45 -211 67 -313 22 -102 51 -235 65
-296 13 -61 24 -114 24 -118 0 -3 113 -5 251 -4 l251 3 18 55 c9 30 84 262
164 515 81 253 153 480 161 505 7 25 25 81 39 125 14 44 70 224 126 400 55
176 107 337 114 357 8 20 11 39 8 42 -3 3 -114 6 -247 6 l-242 0 -82 -417
c-45 -230 -85 -429 -89 -442 -6 -17 -31 94 -87 370 -43 217 -84 414 -90 439
l-11 45 -407 3 c-224 1 -407 0 -407 -3 0 -2 23 -80 50 -172 103 -342 123 -430
115 -507 -3 -38 -15 -98 -26 -133 -19 -61 -67 -153 -80 -153 -3 0 -14 35 -23
78 -51 221 -92 411 -137 631 -27 134 -52 248 -55 253 -3 4 -230 8 -505 8 -405
0 -499 -2 -499 -13z"/>
<path d="M17600 3845 l0 -1005 230 0 230 0 0 330 c0 225 3 330 11 330 9 0 179
-108 887 -562 84 -54 155 -98 157 -98 3 0 5 452 5 1005 l0 1005 -252 -2 -253
-3 -2 -225 c-1 -124 -2 -228 -3 -232 0 -7 -72 70 -300 322 -47 51 -95 104
-108 117 l-23 23 -289 0 -290 0 0 -1005z"/>
<path d="M4337 4245 l-27 -26 0 -377 c0 -411 -1 -407 57 -431 21 -8 289 -11
1025 -9 l998 3 27 28 28 27 3 368 3 368 -24 35 -23 34 -1019 3 -1020 2 -28
-25z"/>
<path d="M12683 4001 c-22 -16 -60 -56 -84 -90 -24 -33 -55 -64 -69 -68 -14
-5 -72 -8 -130 -8 -87 0 -112 4 -148 21 l-43 22 3 -422 c3 -412 3 -422 25
-462 46 -86 162 -161 312 -203 184 -51 244 -55 881 -54 563 1 600 2 680 21
185 44 338 123 404 205 l31 39 -1 474 c-1 455 -1 475 -20 489 -55 42 -137 2
-200 -97 -37 -58 -53 -73 -97 -94 -92 -42 -156 -26 -173 43 -4 16 -22 61 -41
100 -48 103 -97 125 -178 82 -35 -19 -131 -92 -145 -111 -18 -24 -89 -70 -121
-78 -52 -14 -111 11 -186 80 -50 46 -59 50 -103 50 -50 0 -84 -19 -136 -79
-16 -17 -36 -25 -73 -29 -75 -7 -108 10 -138 75 -14 30 -44 69 -66 88 -35 30
-48 35 -92 35 -41 0 -60 -6 -92 -29z"/>
<path d="M7923 2951 c-53 -25 -129 -95 -153 -141 -10 -20 -24 -65 -30 -101 -7
-35 -14 -69 -15 -75 -2 -6 -21 -14 -42 -18 -82 -14 -93 -18 -93 -32 0 -16 27
-18 85 -4 22 5 41 7 43 6 6 -7 -48 -458 -57 -475 -20 -36 -48 -50 -135 -63
-95 -14 -122 -32 -97 -62 34 -41 158 0 235 77 80 81 97 132 124 387 l17 154
35 7 c19 4 52 10 73 13 28 5 37 12 37 27 0 15 -5 18 -22 14 -99 -22 -109 -23
-115 -10 -8 22 16 153 34 188 23 46 39 54 116 60 72 5 105 23 94 51 -9 22 -81
20 -134 -3z"/>
<path d="M8115 2896 c-13 -19 -14 -29 -5 -45 17 -33 56 -26 78 14 26 48 -43
78 -73 31z"/>
<path d="M9945 2891 c-124 -32 -162 -80 -294 -368 -61 -133 -64 -170 -21 -206
59 -50 166 -44 254 14 75 50 135 148 136 221 0 50 -8 66 -41 83 -37 19 -72 18
-136 -4 -29 -10 -53 -14 -53 -9 0 16 98 204 114 217 10 9 29 11 53 7 117 -19
132 -19 139 -1 4 9 1 23 -7 30 -17 17 -103 27 -144 16z m-24 -312 c34 -65 -64
-234 -152 -260 -76 -23 -111 35 -75 122 19 45 75 116 112 140 40 26 100 25
115 -2z"/>
<path d="M9165 2836 c-35 -10 -41 -16 -54 -59 l-15 -47 -47 0 c-31 0 -49 -5
-52 -14 -8 -20 2 -26 44 -26 l38 0 -44 -127 c-61 -176 -60 -203 9 -203 65 0
240 90 218 112 -6 6 -32 -2 -72 -22 -110 -55 -125 -34 -75 104 54 146 48 140
109 132 51 -6 66 1 66 30 0 2 -25 4 -55 4 -30 0 -55 4 -55 8 0 5 7 29 16 55 9
26 14 51 12 55 -1 5 -21 4 -43 -2z"/>
<path d="M8488 2710 l-67 -71 6 55 6 55 -28 -5 c-35 -6 -58 -18 -117 -61 -27
-19 -48 -41 -48 -49 0 -20 8 -18 47 16 41 36 65 40 59 8 -5 -19 -52 -263 -59
-302 -1 -6 4 -11 11 -10 6 1 25 2 41 3 28 1 29 3 46 94 27 150 65 206 178 264
50 25 67 38 63 49 -3 9 -6 18 -6 20 0 2 -15 4 -32 4 -27 0 -44 -11 -100 -70z"/>
<path d="M8754 2746 c-44 -19 -74 -62 -74 -105 0 -31 9 -46 65 -103 36 -36 65
-73 65 -82 0 -9 -11 -28 -25 -41 -18 -19 -35 -25 -68 -25 -48 0 -63 11 -69 50
-2 18 -10 26 -29 28 -57 7 -64 -65 -9 -93 30 -16 104 -20 160 -9 18 4 50 24
71 44 32 30 39 44 39 75 0 33 -8 46 -65 103 -74 75 -85 113 -40 134 26 12 36
9 97 -30 21 -13 32 -14 45 -6 25 16 26 31 4 53 -17 17 -33 21 -78 21 -32 -1
-72 -7 -89 -14z"/>
<path d="M10340 2720 c-26 -26 -25 -36 4 -55 19 -13 29 -14 45 -5 34 18 43 45
22 64 -24 21 -47 20 -71 -4z"/>
<path d="M8065 2699 c-54 -28 -118 -90 -105 -103 5 -5 22 3 45 23 61 54 67 45
44 -67 -10 -48 -21 -119 -25 -159 -6 -70 -6 -73 18 -84 20 -9 32 -8 58 6 36
19 120 93 120 106 0 17 -23 9 -57 -21 -67 -59 -71 -41 -34 146 30 152 29 174
-8 174 -9 0 -34 -9 -56 -21z"/>
<path d="M7113 2609 c-30 -19 -33 -25 -33 -74 l0 -53 -45 -11 c-30 -7 -45 -17
-45 -27 0 -13 8 -15 43 -10 l42 6 -4 -125 c-4 -157 2 -193 33 -201 14 -3 37 1
55 10 41 22 161 135 161 152 0 24 -23 15 -60 -22 -40 -41 -86 -68 -100 -59
-11 7 -14 215 -4 251 4 16 20 26 57 36 35 10 53 21 55 33 3 15 -1 17 -23 11
-15 -4 -40 -10 -56 -13 l-29 -5 0 61 c0 33 -3 61 -7 61 -5 0 -23 -10 -40 -21z"/>
<path d="M10190 2560 c-60 -12 -115 -39 -103 -51 7 -7 25 -6 58 6 27 9 52 12
57 7 4 -4 -13 -37 -38 -73 -73 -104 -116 -185 -112 -216 3 -25 7 -28 47 -31
43 -3 161 32 161 48 0 17 -15 18 -47 5 -45 -19 -73 -19 -73 -1 0 8 38 72 85
142 47 71 85 134 85 141 0 27 -53 37 -120 23z"/>
<path d="M10533 2499 c-21 -32 -31 -39 -47 -34 -12 3 -36 8 -53 12 -50 9 -43
-21 8 -36 l40 -12 -35 -47 c-81 -107 -136 -195 -136 -217 0 -31 36 -55 80 -54
58 1 193 33 198 46 3 10 -17 11 -87 6 -86 -6 -91 -5 -91 14 0 19 77 134 130
195 l25 28 51 -19 c29 -11 54 -17 58 -14 13 14 5 31 -19 37 -13 3 -36 11 -50
16 l-26 10 35 46 c20 26 36 51 36 55 0 5 -20 9 -45 9 -41 0 -47 -3 -72 -41z"/>
<path d="M6844 2456 c-3 -8 -30 -22 -60 -32 -134 -42 -244 -208 -232 -351 11
-130 110 -136 208 -12 l39 49 3 -37 c4 -48 26 -54 77 -20 51 34 117 115 104
128 -6 6 -22 -5 -47 -31 -20 -22 -41 -40 -46 -40 -16 0 -22 63 -18 213 2 115
0 147 -10 147 -7 0 -15 -6 -18 -14z m-54 -186 c0 -111 -16 -160 -66 -199 -51
-40 -88 -20 -100 55 -18 123 52 230 159 243 4 1 7 -44 7 -99z"/>
<path d="M10795 2272 c-123 -59 -212 -190 -169 -250 28 -40 133 -56 247 -38
33 5 47 12 47 23 0 13 -10 15 -65 10 -112 -11 -164 24 -128 86 l19 32 115 0
c125 0 174 16 185 62 16 60 -26 94 -123 100 -60 4 -75 1 -128 -25z m159 -18
c27 -26 19 -52 -22 -73 -29 -16 -162 -27 -162 -14 0 11 67 76 95 91 29 16 71
14 89 -4z"/>
<path d="M6075 2201 c-72 -43 -119 -128 -130 -233 -11 -106 27 -198 82 -198
38 0 109 39 146 80 98 109 97 155 -1 60 -82 -79 -122 -80 -138 -3 -5 27 0 35
57 84 84 72 119 122 119 169 0 20 -5 41 -12 48 -18 18 -89 14 -123 -7z m49
-47 c19 -18 19 -24 6 -58 -10 -28 -87 -116 -101 -116 -14 0 -10 97 5 134 22
52 61 69 90 40z"/>
<path d="M5777 2103 c-13 -13 -7 -42 13 -56 35 -24 42 -63 25 -131 -9 -33 -25
-77 -36 -96 -50 -85 -75 -119 -84 -116 -5 1 -23 27 -40 57 -26 47 -30 64 -30
131 0 65 4 82 24 109 16 22 20 34 12 42 -15 15 -214 -85 -241 -123 -24 -34
-26 -63 -4 -84 19 -20 28 -20 44 -1 10 13 10 19 -5 35 -17 19 -17 21 1 41 16
18 114 75 114 67 0 -2 -9 -27 -20 -56 -25 -65 -25 -95 1 -152 24 -53 91 -160
101 -160 14 0 111 118 148 180 54 89 75 175 60 242 -6 29 -15 58 -22 65 -11
14 -50 18 -61 6z"/>
<path d="M4672 1898 c-45 -15 -119 -82 -144 -131 -34 -67 -39 -94 -47 -264 -9
-178 -18 -206 -72 -225 -16 -5 -29 -16 -29 -24 0 -18 6 -18 75 6 32 11 134 36
228 56 94 19 183 42 198 49 34 18 79 71 79 95 0 31 -33 63 -58 56 -23 -8 -30
-40 -12 -51 14 -9 12 -52 -2 -61 -7 -4 -68 -16 -135 -25 -68 -10 -144 -27
-169 -38 l-46 -21 6 23 c4 12 11 92 16 177 11 183 31 268 71 311 27 29 33 31
72 24 74 -12 101 -11 104 5 2 8 -1 21 -6 29 -11 17 -87 23 -129 9z"/>
<path d="M5179 1880 c-51 -27 -114 -102 -133 -157 -20 -58 -21 -143 -2 -188
18 -41 69 -75 114 -75 45 0 114 35 152 76 97 107 108 277 22 344 -32 26 -105
26 -153 0z m68 -45 c56 -39 82 -185 46 -259 -17 -37 -74 -72 -96 -60 -97 55
-123 223 -47 304 31 33 64 38 97 15z"/>
</g>
</svg>
